<?xml version="1.0" encoding="UTF-8"?>
<svg version="1.1" xmlns="http://www.w3.org/2000/svg" width="512" height="512">
<path d="M0 0 C1.3619902 -0.00642769 1.3619902 -0.00642769 2.75149536 -0.01298523 C4.67286347 -0.01871491 6.59425326 -0.01923884 8.515625 -0.01489258 C11.40143825 -0.01176628 14.28619083 -0.03509077 17.171875 -0.06054688 C36.87863286 -0.12912055 54.45728453 1.76371889 69.41186523 15.9375 C81.52618114 28.03371983 85.68059716 44.25137803 90.68725586 60.15234375 C90.96498589 61.03317627 91.24271591 61.91400879 91.528862 62.8215332 C92.20973891 64.9811589 92.89021128 67.14091118 93.5703125 69.30078125 C128.96092571 70.13407234 164.35389016 70.67441053 199.75076874 71.14673072 C207.51972511 71.25050624 215.28864808 71.35669467 223.05756983 71.46302545 C236.96788749 71.6533788 250.87822303 71.84238695 264.78857422 72.03027344 C265.61290548 72.04140808 266.43723675 72.05254273 267.28654775 72.06401479 C271.45986356 72.12038124 275.63317957 72.17673245 279.80649567 72.233078 C288.14785407 72.34570503 296.48921084 72.45845227 304.83056641 72.57128906 C306.06365364 72.58796885 306.06365364 72.58796885 307.32165173 72.60498559 C321.19204299 72.79264867 335.06241719 72.98154884 348.93278098 73.17123127 C356.65284939 73.27675114 364.37292549 73.38162682 372.09302521 73.48483276 C375.04039049 73.52427698 377.98775533 73.56375427 380.93511963 73.60327148 C381.65443685 73.61291487 382.37375408 73.62255825 383.11486879 73.63249385 C394.75958045 73.78894915 406.40407612 73.95754748 418.04850459 74.13382816 C425.72039779 74.24869655 433.39228112 74.34711253 441.06455636 74.43257618 C445.85386028 74.48844577 450.64295152 74.55593932 455.43206167 74.62634087 C457.64194663 74.65628946 459.85190583 74.68124829 462.06190729 74.70079231 C465.06495918 74.72793306 468.06724778 74.77281792 471.07000732 74.82202148 C472.37178964 74.82713777 472.37178964 74.82713777 473.69987059 74.83235741 C480.10790384 74.96555212 484.55587501 76.36844953 490.0078125 79.86328125 C493.5435823 85.37908213 491.63668259 92.5550247 490.31358337 98.62375736 C489.33483515 102.88148198 488.29942848 107.1244829 487.2578125 111.3671875 C486.8051703 113.24658484 486.35353049 115.12622384 485.90283203 117.00608826 C484.7125152 121.95897692 483.50863343 126.90847001 482.30181885 131.85736084 C481.10579713 136.77207705 479.92250784 141.68985285 478.73828125 146.60742188 C477.12096293 153.31941693 475.49618185 160.029517 473.86158752 166.73732567 C471.96744207 174.5103463 470.09611619 182.2875367 468.2734375 190.07763672 C467.74562498 192.31619768 467.21692643 194.55454704 466.68780518 196.792799 C466.36700739 198.15927197 466.04972907 199.5265775 465.73651123 200.89480782 C461.16149525 220.8736106 452.81911754 239.17878799 435.16796875 250.7734375 C422.6679738 258.12305859 409.8695872 260.65343886 395.59057617 262.14941406 C394.06951549 262.31536695 392.54853044 262.4820142 391.02761364 262.64928055 C386.79085639 263.11231886 382.55285983 263.56292224 378.3144412 264.01046944 C375.50820604 264.30735173 372.7022679 264.60691023 369.89639664 264.9072113 C355.86601092 266.4081395 341.83289075 267.88246895 327.79905343 269.35072613 C321.75459883 269.98347036 315.71034184 270.61809703 309.6660614 271.25250244 C298.28112907 272.44718266 286.89602647 273.64023182 275.51085776 274.8326571 C262.5234582 276.19297514 249.5362556 277.5551692 236.54906714 278.91750097 C209.88969698 281.71397758 183.23008708 284.50816288 156.5703125 287.30078125 C155.75488819 289.38297174 154.94308061 291.46657886 154.1328125 293.55078125 C153.45412109 295.29101562 153.45412109 295.29101562 152.76171875 297.06640625 C149.6229194 305.58747464 149.97828192 312.20394183 153.3125 320.62109375 C156.66226081 327.75754069 161.24494568 333.11905627 168.5703125 336.30078125 C174.67750181 338.11443957 180.13987869 338.58731804 186.4894104 338.55906677 C187.45981431 338.56274248 188.43021823 338.56641818 189.43002832 338.57020527 C192.6664598 338.58014819 195.90271822 338.57604188 199.13916016 338.57202148 C201.46555259 338.57641054 203.79194345 338.58171335 206.11833191 338.58786011 C211.12029608 338.5993451 216.12221796 338.60481841 221.1241951 338.6057415 C228.36264607 338.60751933 235.60101751 338.62220886 242.83944182 338.64123667 C254.59347254 338.67203926 266.34750519 338.69622415 278.1015625 338.71411133 C278.80424033 338.71518401 279.50691815 338.71625669 280.23088925 338.71736187 C288.07407011 338.72918724 295.91725175 338.73939337 303.76043701 338.74780273 C306.60689292 338.75087692 309.45334882 338.75396567 312.29980469 338.75708008 C313.3534403 338.75822809 313.3534403 338.75822809 314.42836149 338.75939929 C326.14238471 338.77248247 337.85635202 338.7971209 349.57033384 338.83082348 C357.43316939 338.85262348 365.29586227 338.86065555 373.15872598 338.85843074 C378.04615011 338.86009545 382.93348074 338.87413102 387.82087135 338.89164352 C390.08883167 338.89725045 392.35681132 338.89772147 394.62477303 338.89270592 C397.71845728 338.88658089 400.81154923 338.89876693 403.90518188 338.91551208 C404.80440262 338.90930027 405.70362336 338.90308845 406.63009322 338.8966884 C411.66790129 338.94644547 415.24571668 339.42265868 419.5703125 342.30078125 C422.27899679 346.75700379 423.11296242 350.38222298 422.2109375 355.44140625 C420.86021526 359.3617952 418.03411889 361.5162858 414.48619175 363.41772079 C410.35604805 364.66851559 406.4591116 364.57632304 402.16624451 364.55474854 C400.73920963 364.55942851 400.73920963 364.55942851 399.28334576 364.56420302 C396.09304978 364.57218494 392.90294391 364.5658584 389.71264648 364.55957031 C387.42598865 364.56228021 385.13933169 364.56584114 382.85267639 364.57019043 C376.63746722 364.5793204 370.42232434 364.57576668 364.20711398 364.56943226 C357.69976544 364.56437115 351.19242261 364.56906442 344.68507385 364.57220459 C333.04810357 364.57607906 321.41116352 364.56985622 309.774198 364.55968592 C299.24162158 364.5507652 288.70908928 364.55229009 278.17651367 364.56152344 C265.93424493 364.57225063 253.69200761 364.57619654 241.44973427 364.57029891 C234.97384302 364.56718697 228.4979821 364.56674816 222.02209282 364.57337189 C215.92605649 364.57917101 209.83010298 364.57510154 203.73407555 364.56358337 C201.50249621 364.56094967 199.27090984 364.56167971 197.03933334 364.5661087 C174.97999015 364.6058352 156.70875771 362.69416574 139.8203125 346.98828125 C129.53082095 336.14194662 124.68396523 321.56502994 124.53515625 306.81640625 C124.99402658 296.74364292 127.3543127 287.53046561 131.9453125 278.55078125 C135.81239223 270.04071918 129.43745578 258.50249735 126.60839844 250.09033203 C126.09841349 248.56286488 125.58883199 247.03526297 125.07962036 245.50753784 C123.98445106 242.22472766 122.88644195 238.94288639 121.78618622 235.6617775 C120.03021197 230.42518198 118.28063224 225.18646325 116.53179932 219.94747925 C113.7470759 211.6077978 110.95803788 203.2695666 108.16720033 194.93192947 C102.92700039 179.27643862 97.69437464 163.61841482 92.46333313 147.95986176 C91.27557694 144.40446074 90.08747369 140.84917599 88.89909363 137.29398346 C81.72905286 115.84212115 74.58009372 94.38495443 67.66204834 72.85012817 C65.3157348 65.555387 62.91622111 58.28205326 60.40136719 51.04345703 C60.16143162 50.34309263 59.92149605 49.64272823 59.6742897 48.92114067 C56.69584307 40.44879232 52.66828654 33.55330564 44.5703125 29.30078125 C37.61824158 26.58306299 31.15249512 25.87060594 23.7421875 25.89453125 C22.74954895 25.88369507 21.7569104 25.87285889 20.73419189 25.86169434 C16.53182313 25.81620789 12.32952392 25.80433046 8.12695312 25.78955078 C5.04014314 25.77384061 1.95384357 25.74085727 -1.1328125 25.70703125 C-2.07666809 25.71005249 -3.02052368 25.71307373 -3.99298096 25.71618652 C-10.10687462 25.64658915 -14.78955502 24.99684874 -19.2734375 20.41796875 C-21.39765859 16.52834769 -21.14681486 12.59001469 -20.4296875 8.30078125 C-18.74478303 4.7725625 -16.44822674 2.74803613 -12.83935547 1.16333008 C-8.49660208 0.06473723 -4.46198789 -0.00473194 0 0 Z M101.5703125 95.30078125 C102.36566919 97.84726703 103.16113005 100.39372018 103.95664978 102.94015503 C104.17988843 103.65493358 104.40312709 104.36971212 104.63313055 105.10615063 C112.38964413 129.93262667 120.62509399 154.59588151 128.8782444 179.260355 C130.17578586 183.1382647 131.47285405 187.01633247 132.76953125 190.89453125 C133.02221897 191.6502177 133.27490669 192.40590416 133.53525162 193.1844902 C138.60631845 208.3560675 143.57876331 223.55892858 148.46069336 238.79248047 C150.90952148 246.40775942 153.45153448 253.92748669 156.5703125 261.30078125 C169.19557325 260.59652079 181.74503019 259.3256528 194.31958008 258.01586914 C196.58137775 257.78229557 198.8431989 257.54894927 201.1050415 257.31581116 C207.2061457 256.6861702 213.30688108 256.05302353 219.40752625 255.41895223 C224.51209294 254.88867565 229.61682359 254.35998651 234.72154921 253.8312425 C247.45007019 252.51273914 260.17821885 251.19068488 272.90621247 249.86710297 C283.93967662 248.7198619 294.97364985 247.57760095 306.00786642 246.43762154 C317.36991086 245.26372115 328.73157153 244.08618107 340.09286994 242.90507883 C346.45876875 242.24334178 352.82480819 241.58304029 359.19123268 240.92637825 C365.17290117 240.30925934 371.15407492 239.68754796 377.13490295 239.06233788 C379.32523332 238.83414525 381.51573236 238.6075649 383.70641136 238.38274384 C386.70443685 238.07480762 389.70178935 237.76096718 392.6990509 237.44569397 C393.55849975 237.35881901 394.4179486 237.27194406 395.30344135 237.18243653 C409.02584995 235.71873048 420.90451886 232.80263814 430.5703125 222.30078125 C439.11168683 211.5059539 441.16844147 197.7426034 444.2578125 184.67578125 C444.85728139 182.20045703 445.45837827 179.72552655 446.06103516 177.25097656 C447.29861424 172.15459828 448.52450536 167.05561909 449.74072266 161.95410156 C451.51662661 154.50871561 453.32803783 147.07228635 455.14453125 139.63671875 C456.24679905 135.10855916 457.34642823 130.57976298 458.4453125 126.05078125 C458.70815033 124.9701239 458.97098816 123.88946655 459.24179077 122.77606201 C459.9786719 119.73859939 460.70916198 116.69967712 461.4375 113.66015625 C461.6555278 112.76485199 461.8735556 111.86954773 462.09819031 110.94711304 C462.29379044 110.12506378 462.48939056 109.30301453 462.69091797 108.45605469 C462.86186981 107.74559998 463.03282166 107.03514526 463.20895386 106.30316162 C463.68870969 103.98383313 463.68870969 103.98383313 463.5703125 100.30078125 C445.14686215 99.57533476 426.73480524 99.08412149 408.29907227 98.82006836 C405.70429127 98.7807477 403.10951394 98.74118414 400.51473999 98.70140076 C394.26704264 98.60611435 388.01930323 98.51395488 381.77154035 98.4230768 C376.66211655 98.34872079 371.55270947 98.27329887 366.44331169 98.19717598 C365.70704389 98.18621002 364.97077608 98.17524407 364.21219714 98.16394581 C362.71456869 98.14163984 361.21694026 98.11933337 359.71931183 98.09702642 C345.74394021 97.889022 331.7685149 97.68482523 317.79306989 97.48182119 C305.17130596 97.29836051 292.54961964 97.11007377 279.92796243 96.91942411 C266.82433812 96.72154233 253.72066567 96.52716436 240.61693805 96.33624274 C233.31876192 96.22985082 226.02060918 96.12226503 218.72250557 96.01099968 C179.66855686 95.41685191 140.62827556 95.18340015 101.5703125 95.30078125 Z " fill="#000000" transform="translate(20.4296875,5.69921875)"/>
<path d="M0 0 C10.36764376 8.49596294 17.458922 20.63597068 19.4375 33.9375 C20.50171705 51.66282002 17.30727571 65.73280847 5.6875 79.625 C-5.02843529 91.08902888 -18.33347819 96.47046771 -33.96484375 97.00390625 C-50.02939423 96.7073836 -62.25978383 90.84152834 -73.75 79.84375 C-84.45996941 68.6469638 -88.41491053 55.15561427 -88.5625 39.9375 C-87.65700218 28.20914723 -84.18427354 17.91893666 -76.5625 8.9375 C-76.11132812 8.34324219 -75.66015625 7.74898438 -75.1953125 7.13671875 C-67.97267931 -2.06499755 -56.80165859 -8.51329543 -45.3359375 -10.74609375 C-28.53130093 -12.66324243 -13.95311848 -9.93887642 0 0 Z M-58.5625 25.9375 C-62.87946801 31.74307766 -64.17656309 38.81436818 -63.5625 45.9375 C-62.01196552 54.39496078 -58.30154289 61.05148483 -51.609375 66.5390625 C-45.1958766 70.85681142 -38.31344247 72.61740723 -30.5625 71.9375 C-20.91893998 69.70131217 -14.0905113 65.6299872 -8.7890625 57.21875 C-4.72887027 49.66730968 -4.55740658 41.98796333 -5.95703125 33.5625 C-7.99969876 27.02596397 -13.06961425 21.19979611 -18.7578125 17.515625 C-33.53348681 9.99148089 -48.15864136 13.41218415 -58.5625 25.9375 Z " fill="#000000" transform="translate(197.5625,409.0625)"/>
<path d="M0 0 C12.51013327 9.80908177 20.86183522 22.04444962 23 38 C24.05151126 54.70285195 20.08907913 68.73011535 9.2890625 81.61328125 C-0.62955901 91.95505214 -13.73226362 98.00374908 -28 99 C-42.91581455 99.13529083 -57.1597209 94.73686197 -68.4375 84.64453125 C-80.18465538 72.28065021 -85.40477091 58.51031722 -85.2109375 41.43359375 C-84.26630364 26.05705369 -77.09748296 13.40494597 -66 3 C-47.6026159 -12.26109894 -19.65012843 -13.91884097 0 0 Z M-54.0625 26.375 C-59.46846635 34.29935555 -61.11925471 41.37186572 -60 51 C-57.98865892 58.62633493 -53.17556035 65.4071636 -46.46484375 69.57421875 C-39.13857829 73.33985446 -32.52918548 75.33601862 -24.31640625 73.3515625 C-14.56859144 70.18791664 -8.59506034 65.09957462 -3.91015625 56.015625 C-0.72596174 48.96393244 -0.96169161 40.89279903 -3.625 33.6875 C-7.44758483 25.44917064 -12.35557963 20.92460391 -20.65625 17.11328125 C-33.01687202 12.99788724 -45.70931623 16.29176352 -54.0625 26.375 Z " fill="#000000" transform="translate(420,407)"/>
</svg>
